# xmcd CD database file
#
# Track frame offsets:
#	150
#	9905
#	22115
#	30842
#	40822
#	50477
#	60050
#	71495
#	81115
#	94485
#	103080
#	111412
#	117960
#	130555
#	141887
#	150060
#	158325
#	166600
#	172990
#	182862
#	191775
#	200232
#	208550
#	218920
#	227515
#	240070
#
# Disc length: 3304 seconds
#
# Revision: 2
# Processed by: cddbd v1.4PL0 Copyright (c) Steve Scherf et al.
# Submitted via: CDex 1.50Beta7
#
DISCID=450ce61a
DTITLE=Frank Sinatra - Your Hit Parade
DYEAR=1998
DGENRE=Jazz
TTITLE0=Near You
TTITLE1=How Soon
TTITLE2=I'll dance At Your Wedding
TTITLE3=Serenade Of The Bells
TTITLE4=Civilization
TTITLE5=Haunted Heart
TTITLE6=Nature Boy
TTITLE7=Laroo, Laroo, Lilli Bolero
TTITLE8=But Beautiful
TTITLE9=Woody Woodpecker
TTITLE10=My Happiness
TTITLE11=Hair Of Gold, Eyes Of Blue
TTITLE12=It Only Happens In The Meadow
TTITLE13=A Tree In The Meadow
TTITLE14=Buttons And Bows
TTITLE15=You Call Everybody Darling
TTITLE16=Until
TTITLE17=You Were Only Fooling
TTITLE18=Maybe You'll Be There
TTITLE19=My Darling, My Darling
TTITLE20=Red Roses For A Bue Lady
TTITLE21=Sunflower
TTITLE22=Far Away Places
TTITLE23=Someone Like You
TTITLE24=So In Love
TTITLE25=I'Ve got My Love To Keep Me Warm
EXTD=YEAR: 1998
EXTT0=
EXTT1=
EXTT2=
EXTT3=
EXTT4=
EXTT5=
EXTT6=
EXTT7=
EXTT8=
EXTT9=
EXTT10=
EXTT11=
EXTT12=
EXTT13=
EXTT14=
EXTT15=
EXTT16=
EXTT17=
EXTT18=
EXTT19=
EXTT20=
EXTT21=
EXTT22=
EXTT23=
EXTT24=
EXTT25=
PLAYORDER=
